# xmcd CD database file
#
# Track frame offsets:
#	150
#	11264
#	22797
#	29567
#	34929
#	41904
#	57927
#	79229
#	91787
#	96247
#	101997
#	108609
#	113579
#	152154
#	156774
#	163444
#	169082
#	187830
#	199230
#	206925
#	226137
#
# Disc length: 3349 seconds
#
# Revision: 4
# Processed by: cddbd v1.5.2PL0 Copyright (c) Steve Scherf et al.
# Submitted via: CDex 1.70beta2
#
DISCID=150d1315
DTITLE=George Gershwin - Gershwin plays Gershwin - Rare Recordings 1932-35
DYEAR=1999
DGENRE=Jazz
TTITLE0=Variations On Fascinating Rhythm, Variatons On Liza
TTITLE1=Second Prelude
TTITLE2=Interview
TTITLE3=I Got Rhythm
TTITLE4=Signature
TTITLE5=Of Thee I Sing - Overture
TTITLE6=The Man I Love
TTITLE7=I Got Rhythm
TTITLE8=Commercial
TTITLE9=Swanee - Sign-Off
TTITLE10=Signature
TTITLE11=Mine
TTITLE12=Variations On I Got Rythm
TTITLE13=Love Is Sweeping The Country
TTITLE14=Commercial
TTITLE15=Wintergreen For President - Sign-Off
TTITLE16=Introduction - Summertime
TTITLE17=A Woman Is A Sometime Thing
TTITLE18=Act I, Scene 1 Finale
TTITLE19=My Man's Gone Now
TTITLE20=Bess, You Are My Woman Now
EXTD=YEAR: 1999
EXTT0=Recorded from Rudy Vallèe "Fleischmann Hour" Radio\nProgram, November 10th, 1932 - all songs written and\nperformed by George Gershwin
EXTT1=
EXTT2=
EXTT3=Recorded from "Music by Gershwin" Radio Program, February\n19th, 1934 - all songs written and performed by George\nGershwin
EXTT4=
EXTT5=
EXTT6=
EXTT7=
EXTT8=
EXTT9=Recorded from "Music by Gershwin" Radio Program, April\n30th, 1934, New York - all songs written and performed by\nGeorge Gershwin
EXTT10=
EXTT11=
EXTT12=
EXTT13=
EXTT14=
EXTT15=Recorded from Porgy and Bess Rehearsal Performance,\nJuly 19th, 1935, all songs written and performed by George\nGershwin
EXTT16=Vocals by Abbie Mitchell
EXTT17=Vocals by Edward Matthews
EXTT18=
EXTT19=Vocals by Ruby Elzy
EXTT20=Vocals by Todd Duncan and Anne Brown
PLAYORDER=
